<svg xmlns="http://www.w3.org/2000/svg" width="24" height="23" viewBox="0 0 24 23"><defs><clipPath id="xvlga"><path fill="#fff" d="M11.148 0c6.156 0 11.148 4.99 11.148 11.148 0 6.157-4.992 11.148-11.148 11.148-6.158 0-11.149-4.991-11.149-11.148S4.99-.001 11.148-.001z"/></clipPath></defs><g><g><g><path fill="none" stroke="#0081c6" stroke-miterlimit="50" stroke-width="4" d="M11.148 0c6.156 0 11.148 4.99 11.148 11.148 0 6.157-4.992 11.148-11.148 11.148-6.158 0-11.149-4.991-11.149-11.148S4.99-.001 11.148-.001z" clip-path="url(&quot;#xvlga&quot;)"/></g><g><path fill="#0081c6" d="M18.859 18.903l.928-1.16 3.717 2.973-.93 1.16z"/></g><g opacity=".12"><path fill="#0081c6" d="M11.148 3.716a7.432 7.432 0 1 1 0 14.864 7.432 7.432 0 0 1 0-14.864z"/></g></g></g></svg>